<?xml version="1.0" standalone="no"?>
<!DOCTYPE svg PUBLIC "-//W3C//DTD SVG 20010904//EN"
 "http://www.w3.org/TR/2001/REC-SVG-20010904/DTD/svg10.dtd">
<svg version="1.0" xmlns="http://www.w3.org/2000/svg"
 width="260.000000pt" height="260.000000pt" viewBox="0 0 260.000000 260.000000"
 preserveAspectRatio="xMidYMid meet">
<metadata>
Created by potrace 1.11, written by Peter Selinger 2001-2013
</metadata>
<g transform="translate(0.000000,260.000000) scale(0.100000,-0.100000)"
fill="#000000" stroke="none">
<path d="M400 1831 c-86 -28 -139 -84 -147 -155 -14 -121 30 -177 182 -232
138 -50 175 -83 175 -156 0 -71 -76 -137 -158 -138 -44 0 -100 25 -137 60
l-30 29 -27 -24 -27 -23 27 -27 c41 -42 100 -67 167 -72 153 -13 256 70 257
205 1 100 -47 151 -190 202 -112 40 -139 56 -158 92 -35 68 7 156 87 180 55
16 123 2 164 -33 l33 -30 29 26 28 25 -25 20 c-14 11 -38 27 -55 36 -34 18
-157 28 -195 15z"/>
<path d="M1089 1818 c-1 -2 -3 -162 -4 -355 l-1 -353 226 0 227 0 0 30 0 30
-191 2 -190 3 -1 120 c0 66 1 128 3 138 4 15 21 17 173 17 l169 0 0 30 0 30
-172 2 -172 3 0 120 0 120 182 3 c109 1 183 6 183 12 6 48 19 45 -213 48 -120
1 -219 1 -219 0z"/>
<path d="M1924 1465 l0 -355 36 0 37 0 -1 156 c-1 86 1 159 4 164 3 4 53 9
111 12 88 3 113 7 155 29 63 32 97 89 95 161 -3 139 -83 188 -311 188 l-126 0
0 -355z m268 284 c60 -16 89 -47 95 -100 4 -31 0 -56 -11 -77 -26 -49 -67 -65
-181 -70 l-100 -4 1 128 c1 71 2 130 3 132 3 7 162 0 193 -9z"/>
<path d="M819 1501 c-37 -37 -38 -79 -3 -120 35 -42 84 -43 125 -2 37 37 38
79 3 120 -35 42 -84 43 -125 2z"/>
<path d="M1659 1501 c-20 -20 -29 -39 -29 -61 0 -43 47 -90 90 -90 43 0 90 47
90 90 0 22 -9 41 -29 61 -20 20 -39 29 -61 29 -22 0 -41 -9 -61 -29z"/>
<path d="M490 825 l0 -25 740 0 740 0 0 25 0 25 -740 0 -740 0 0 -25z"/>
</g>
</svg>
